<svg viewBox="0 0 330 200" xmlns="http://www.w3.org/2000/svg"><g><g><g><g><g><line x1="51.5625" y1="178" x2="46.5625" y2="178" style="visibility: inherit;" fill="rgb(0, 0, 0)" stroke="rgb(204, 204, 204)" stroke-width="1px"></line><line x1="51.5625" y1="158.2222222222222" x2="46.5625" y2="158.2222222222222" style="visibility: inherit;" fill="rgb(0, 0, 0)" stroke="rgb(204, 204, 204)" stroke-width="1px"></line><line x1="51.5625" y1="138.44444444444446" x2="46.5625" y2="138.44444444444446" style="visibility: inherit;" fill="rgb(0, 0, 0)" stroke="rgb(204, 204, 204)" stroke-width="1px"></line><line x1="51.5625" y1="118.66666666666666" x2="46.5625" y2="118.66666666666666" style="visibility: inherit;" fill="rgb(0, 0, 0)" stroke="rgb(204, 204, 204)" stroke-width="1px"></line><line x1="51.5625" y1="98.8888888888889" x2="46.5625" y2="98.8888888888889" style="visibility: inherit;" fill="rgb(0, 0, 0)" stroke="rgb(204, 204, 204)" stroke-width="1px"></line><line x1="51.5625" y1="79.1111111111111" x2="46.5625" y2="79.1111111111111" style="visibility: inherit;" fill="rgb(0, 0, 0)" stroke="rgb(204, 204, 204)" stroke-width="1px"></line><line x1="51.5625" y1="59.33333333333334" x2="46.5625" y2="59.33333333333334" style="visibility: inherit;" fill="rgb(0, 0, 0)" stroke="rgb(204, 204, 204)" stroke-width="1px"></line><line x1="51.5625" y1="39.55555555555557" x2="46.5625" y2="39.55555555555557" style="visibility: inherit;" fill="rgb(0, 0, 0)" stroke="rgb(204, 204, 204)" stroke-width="1px"></line><line x1="51.5625" y1="19.777777777777786" x2="46.5625" y2="19.777777777777786" style="visibility: inherit;" fill="rgb(0, 0, 0)" stroke="rgb(204, 204, 204)" stroke-width="1px"></line><line x1="51.5625" y1="0" x2="46.5625" y2="0" style="visibility: inherit;" fill="rgb(0, 0, 0)" stroke="rgb(204, 204, 204)" stroke-width="1px"></line></g><g transform="translate(41.5625, 0)"><text x="0" y="178" dx="0em" dy="0.3em" style="text-anchor: end; visibility: hidden; font-family: Roboto, sans-serif; font-size: 12px; font-weight: 200;" fill="rgb(50, 49, 63)" stroke="none" stroke-width="1px">-0.1</text><text x="0" y="158.2222222222222" dx="0em" dy="0.3em" style="text-anchor: end; visibility: inherit; font-family: Roboto, sans-serif; font-size: 12px; font-weight: 200;" fill="rgb(50, 49, 63)" stroke="none" stroke-width="1px">0</text><text x="0" y="138.44444444444446" dx="0em" dy="0.3em" style="text-anchor: end; visibility: hidden; font-family: Roboto, sans-serif; font-size: 12px; font-weight: 200;" fill="rgb(50, 49, 63)" stroke="none" stroke-width="1px">0.1</text><text x="0" y="118.66666666666666" dx="0em" dy="0.3em" style="text-anchor: end; visibility: inherit; font-family: Roboto, sans-serif; font-size: 12px; font-weight: 200;" fill="rgb(50, 49, 63)" stroke="none" stroke-width="1px">0.2</text><text x="0" y="98.8888888888889" dx="0em" dy="0.3em" style="text-anchor: end; visibility: hidden; font-family: Roboto, sans-serif; font-size: 12px; font-weight: 200;" fill="rgb(50, 49, 63)" stroke="none" stroke-width="1px">0.3</text><text x="0" y="79.1111111111111" dx="0em" dy="0.3em" style="text-anchor: end; visibility: inherit; font-family: Roboto, sans-serif; font-size: 12px; font-weight: 200;" fill="rgb(50, 49, 63)" stroke="none" stroke-width="1px">0.4</text><text x="0" y="59.33333333333334" dx="0em" dy="0.3em" style="text-anchor: end; visibility: hidden; font-family: Roboto, sans-serif; font-size: 12px; font-weight: 200;" fill="rgb(50, 49, 63)" stroke="none" stroke-width="1px">0.5</text><text x="0" y="39.55555555555557" dx="0em" dy="0.3em" style="text-anchor: end; visibility: inherit; font-family: Roboto, sans-serif; font-size: 12px; font-weight: 200;" fill="rgb(50, 49, 63)" stroke="none" stroke-width="1px">0.6</text><text x="0" y="19.777777777777786" dx="0em" dy="0.3em" style="text-anchor: end; visibility: hidden; font-family: Roboto, sans-serif; font-size: 12px; font-weight: 200;" fill="rgb(50, 49, 63)" stroke="none" stroke-width="1px">0.7</text><text x="0" y="0" dx="0em" dy="0.3em" style="text-anchor: end; visibility: hidden; font-family: Roboto, sans-serif; font-size: 12px; font-weight: 200;" fill="rgb(50, 49, 63)" stroke="none" stroke-width="1px">0.8</text></g><line x1="51.5625" y1="0" x2="51.5625" y2="178" fill="rgb(0, 0, 0)" stroke="rgb(204, 204, 204)" stroke-width="1px"></line></g></g><g transform="translate(51, 0)" clip-path="url(#clip_0)"><clipPath id="clip_0"><rect width="278" height="178"></rect></clipPath><g><g><g><line x1="0" y1="0" x2="0" y2="178" fill="rgb(0, 0, 0)" stroke="rgb(60, 60, 60)" stroke-width="1px" opacity="0.25"></line><line x1="23.203125" y1="0" x2="23.203125" y2="178" fill="rgb(0, 0, 0)" stroke="rgb(60, 60, 60)" stroke-width="1px" opacity="0.25"></line><line x1="46.40625" y1="0" x2="46.40625" y2="178" fill="rgb(0, 0, 0)" stroke="rgb(60, 60, 60)" stroke-width="1px" opacity="0.25"></line><line x1="69.609375" y1="0" x2="69.609375" y2="178" fill="rgb(0, 0, 0)" stroke="rgb(60, 60, 60)" stroke-width="1px" opacity="0.25"></line><line x1="92.8125" y1="0" x2="92.8125" y2="178" fill="rgb(0, 0, 0)" stroke="rgb(60, 60, 60)" stroke-width="1px" opacity="0.25"></line><line x1="116.015625" y1="0" x2="116.015625" y2="178" fill="rgb(0, 0, 0)" stroke="rgb(60, 60, 60)" stroke-width="1px" opacity="0.25"></line><line x1="139.21875" y1="0" x2="139.21875" y2="178" fill="rgb(0, 0, 0)" stroke="rgb(60, 60, 60)" stroke-width="1px" opacity="0.25"></line><line x1="162.421875" y1="0" x2="162.421875" y2="178" fill="rgb(0, 0, 0)" stroke="rgb(60, 60, 60)" stroke-width="1px" opacity="0.25"></line><line x1="185.625" y1="0" x2="185.625" y2="178" fill="rgb(0, 0, 0)" stroke="rgb(60, 60, 60)" stroke-width="1px" opacity="0.25"></line><line x1="208.828125" y1="0" x2="208.828125" y2="178" fill="rgb(0, 0, 0)" stroke="rgb(60, 60, 60)" stroke-width="1px" opacity="0.25"></line><line x1="232.03125" y1="0" x2="232.03125" y2="178" fill="rgb(0, 0, 0)" stroke="rgb(60, 60, 60)" stroke-width="1px" opacity="0.25"></line><line x1="255.234375" y1="0" x2="255.234375" y2="178" fill="rgb(0, 0, 0)" stroke="rgb(60, 60, 60)" stroke-width="1px" opacity="0.25"></line><line x1="278.4375" y1="0" x2="278.4375" y2="178" fill="rgb(0, 0, 0)" stroke="rgb(60, 60, 60)" stroke-width="1px" opacity="0.25"></line></g><g><line x1="0" y1="178" x2="278.4375" y2="178" fill="rgb(0, 0, 0)" stroke="rgb(60, 60, 60)" stroke-width="1px" opacity="0.25"></line><line x1="0" y1="158.2222222222222" x2="278.4375" y2="158.2222222222222" fill="rgb(0, 0, 0)" stroke="rgb(60, 60, 60)" stroke-width="1px" opacity="0.25"></line><line x1="0" y1="138.44444444444446" x2="278.4375" y2="138.44444444444446" fill="rgb(0, 0, 0)" stroke="rgb(60, 60, 60)" stroke-width="1px" opacity="0.25"></line><line x1="0" y1="118.66666666666666" x2="278.4375" y2="118.66666666666666" fill="rgb(0, 0, 0)" stroke="rgb(60, 60, 60)" stroke-width="1px" opacity="0.25"></line><line x1="0" y1="98.8888888888889" x2="278.4375" y2="98.8888888888889" fill="rgb(0, 0, 0)" stroke="rgb(60, 60, 60)" stroke-width="1px" opacity="0.25"></line><line x1="0" y1="79.1111111111111" x2="278.4375" y2="79.1111111111111" fill="rgb(0, 0, 0)" stroke="rgb(60, 60, 60)" stroke-width="1px" opacity="0.25"></line><line x1="0" y1="59.33333333333334" x2="278.4375" y2="59.33333333333334" fill="rgb(0, 0, 0)" stroke="rgb(60, 60, 60)" stroke-width="1px" opacity="0.25"></line><line x1="0" y1="39.55555555555557" x2="278.4375" y2="39.55555555555557" fill="rgb(0, 0, 0)" stroke="rgb(60, 60, 60)" stroke-width="1px" opacity="0.25"></line><line x1="0" y1="19.777777777777786" x2="278.4375" y2="19.777777777777786" fill="rgb(0, 0, 0)" stroke="rgb(60, 60, 60)" stroke-width="1px" opacity="0.25"></line><line x1="0" y1="0" x2="278.4375" y2="0" fill="rgb(0, 0, 0)" stroke="rgb(60, 60, 60)" stroke-width="1px" opacity="0.25"></line></g></g></g><g><g><line x1="0" y1="158.2222222222222" x2="278.4375" y2="158.2222222222222" fill="rgb(0, 0, 0)" stroke="rgb(153, 153, 153)" stroke-width="1.5px"></line></g></g><g><g><line x1="23.203125" y1="0" x2="23.203125" y2="178" fill="rgb(0, 0, 0)" stroke="rgb(153, 153, 153)" stroke-width="1.5px"></line></g></g><g><g><g><g><g><path stroke="rgb(255, 112, 67)" stroke-width="2px" d="M32.368359375000004,-20.626512085884976L34.688671875000004,12.464758376882557L37.008984375,38.4197231058304L39.329296875,56.671315238636645L41.649609375000004,68.15709214524624L43.969921875000004,80.82072300973954L46.290234375000004,85.94139903269692L48.610546875000004,92.78905497488846L50.930859375000004,95.50878003693614L53.251171875000004,100.77683184780342L55.571484375,103.4972311667705L57.891796875,107.43570356994664L60.212109375,108.36765818376061L62.532421875,109.51793114382167L64.852734375,113.00905006516327L67.173046875,115.27345220292865L69.493359375,117.02559899335117L71.81367187500001,120.30263190985755L74.133984375,116.3316852822933L76.454296875,118.8006637130533L78.774609375,120.1112248498764L81.094921875,122.94998626059319L83.415234375,123.85763953470841L85.735546875,120.1916284187441L88.055859375,123.31638845309946L90.376171875,123.52473668552949L92.69648437500001,124.86359560065976L95.016796875,126.154602359886L97.33710937500001,127.94302341868958L99.657421875,128.20615234159544L101.97773437500001,127.84232367403517L104.298046875,129.29957067818827L106.61835937500001,128.30131264733959L108.938671875,129.48212627364754L111.258984375,130.7056705666927L113.579296875,131.05318705464094L115.899609375,131.07207580279L118.219921875,131.77502232901753L120.540234375,131.5638010494305L122.860546875,132.9680668962847L125.180859375,133.11695368077724L127.50117187500001,132.72620485545264L129.821484375,133.07236443819085L132.141796875,132.2594936647067L134.462109375,132.2649738472201L136.782421875,133.45816224903467L139.102734375,133.8873678093623L141.423046875,135.4578513199117L143.74335937499998,135.6859991964124L146.06367187499998,135.25925739439123L148.383984375,135.99250224596085L150.704296875,137.0597810627973L153.02460937499998,136.65365956450555L155.34492187499998,137.53260600965936L157.665234375,136.5437491679293L159.985546875,136.71703541343024L162.30585937499998,135.70961044403012L164.626171875,135.2349053035503L166.946484375,135.85266203014672L169.266796875,136.00206290944257L171.58710937499998,135.56913923778438L173.907421875,134.20423444113777L176.227734375,134.61559095648582L178.54804687499998,135.622044122225L180.86835937499998,135.83096146610401L183.188671875,136.09526910135693L185.508984375,135.923713926306L187.82929687499998,137.52961564159892L190.14960937499998,136.26264296562707L192.469921875,136.85435863290965L194.790234375,136.46924042939654L197.11054687499998,135.88233087735415L199.430859375,136.0197893609559L201.751171875,135.6676133875688L204.071484375,135.1482001161692L206.39179687499998,136.42316112614378L208.712109375,134.90545295561043L211.032421875,134.23168443438888L213.35273437499998,132.88376775130783L215.67304687499998,134.1570355737914L217.993359375,134.55380297900825L220.313671875,135.93928512653662L222.63398437499998,136.483120723889L224.95429687499998,135.42398165324872L227.274609375,136.6098622692531L229.594921875,135.96813981742432L231.91523437499998,135.61349349624376L234.235546875,136.50940285964683L236.555859375,137.022468532188L238.876171875,135.7117592709309L241.19648437499998,135.1891803963543L243.516796875,135.88354525706535L245.837109375,135.68749300352223L248.15742187499998,134.7954190184033L250.47773437499998,135.36761925806073L252.798046875,135.8392893617055L255.118359375,136.81050667300698" style="fill: none;" fill="none"></path></g></g></g></g><g opacity="0.2"><g><g><g><path stroke="rgb(255, 112, 67)" stroke-width="2px" d="M30.048046874999997,-11.676662868923607L32.368359375000004,26.16985628339981L34.688671875000004,55.668721093071845L37.008984375,74.32478311326769L39.329296875,82.77138401402368L41.649609375000004,84.90346513854134L43.969921875000004,99.497118751208L46.290234375000004,93.54500614272224L48.610546875000004,102.9984311527676L50.930859375000004,99.57356700632309L53.251171875000004,108.66170846091377L55.571484375,107.57250059975519L57.891796875,113.33878264824551L60.212109375,109.76493281788295L62.532421875,111.24285382694667L64.852734375,118.24484205245972L67.173046875,118.66971045070225L69.493359375,119.65365902582806L71.81367187500001,125.21800156434378L74.133984375,110.37539600663716L76.454296875,122.50408261352116L78.774609375,122.07705103026497L81.094921875,127.20810819996727L83.415234375,125.21911557515463L85.735546875,114.69262112511528L88.055859375,128.00352370738983L90.376171875,123.83725884225633L92.69648437500001,126.87188323338827L95.016796875,128.09111207061343L97.33710937500001,130.62565465105902L99.657421875,128.60084569454193L101.97773437500001,127.29658069875505L104.298046875,131.48544112179013L106.61835937500001,126.80392562680775L108.938671875,131.2533466948403L111.258984375,132.5409869949023L113.579296875,131.57446178462772L115.899609375,131.10040892495047L118.219921875,132.82944211694928L120.540234375,131.24696913030414L122.860546875,135.07446566555234L125.180859375,133.34028385745157L127.50117187500001,132.14008161756726L129.821484375,133.59160381224422L132.141796875,131.04018750455646L134.462109375,132.27319412098993L136.782421875,135.24794485171637L139.102734375,134.53117614984512L141.423046875,137.81357658571667L143.74335937499998,136.0282210111618L146.06367187499998,134.6191446913613L148.383984375,137.09236952331332L150.704296875,138.66069928805032L153.02460937499998,136.0444773170683L155.34492187499998,138.85102567738957L157.665234375,135.06046390533447L159.985546875,136.9769647816817L162.30585937499998,134.19847298993002L164.626171875,134.52284759283066L166.946484375,136.77929712004132L169.266796875,136.22616422838635L171.58710937499998,134.9197537302971L173.907421875,132.15687724616794L176.227734375,135.23262572950787L178.54804687499998,137.13172387083372L180.86835937499998,136.14433748192258L183.188671875,136.49173055423628L185.508984375,135.66638116372954L187.82929687499998,139.93846821453837L190.14960937499998,134.36218395166927L192.469921875,137.74193213383356L194.790234375,135.89156312412686L197.11054687499998,135.00196654929053L199.430859375,136.2259770863586L201.751171875,135.13934942748813L204.071484375,134.36908020906978L206.39179687499998,138.33560264110565L208.712109375,132.62889069981046L211.032421875,133.22103165255655L213.35273437499998,130.86189272668628L215.67304687499998,136.06693730751672L217.993359375,135.14895408683353L220.313671875,138.0175083478292L222.63398437499998,137.29887411991754L224.95429687499998,133.83527304728827L227.274609375,138.38868319325977L229.594921875,135.00555613968106L231.91523437499998,135.08152401447296L234.235546875,137.85326690475145L236.555859375,137.79206704099974L238.876171875,133.7456953790453L241.19648437499998,134.4053120844894L243.516796875,136.92509254813194L245.837109375,135.39341462320752L248.15742187499998,133.45730804072488L250.47773437499998,136.2259196175469L252.798046875,136.54679451717269L255.118359375,138.26733263995914" style="fill: none;" fill="none"></path></g></g></g></g></g></g><g transform="translate(51, 178)" clip-path="url(#clip_1)"><clipPath id="clip_1"><rect width="278" height="22"></rect></clipPath><g><g><line x1="0" y1="0" x2="0" y2="5" style="visibility: inherit;" fill="rgb(0, 0, 0)" stroke="rgb(204, 204, 204)" stroke-width="1px"></line><line x1="23.203125" y1="0" x2="23.203125" y2="5" style="visibility: inherit;" fill="rgb(0, 0, 0)" stroke="rgb(204, 204, 204)" stroke-width="1px"></line><line x1="46.40625" y1="0" x2="46.40625" y2="5" style="visibility: inherit;" fill="rgb(0, 0, 0)" stroke="rgb(204, 204, 204)" stroke-width="1px"></line><line x1="69.609375" y1="0" x2="69.609375" y2="5" style="visibility: inherit;" fill="rgb(0, 0, 0)" stroke="rgb(204, 204, 204)" stroke-width="1px"></line><line x1="92.8125" y1="0" x2="92.8125" y2="5" style="visibility: inherit;" fill="rgb(0, 0, 0)" stroke="rgb(204, 204, 204)" stroke-width="1px"></line><line x1="116.015625" y1="0" x2="116.015625" y2="5" style="visibility: inherit;" fill="rgb(0, 0, 0)" stroke="rgb(204, 204, 204)" stroke-width="1px"></line><line x1="139.21875" y1="0" x2="139.21875" y2="5" style="visibility: inherit;" fill="rgb(0, 0, 0)" stroke="rgb(204, 204, 204)" stroke-width="1px"></line><line x1="162.421875" y1="0" x2="162.421875" y2="5" style="visibility: inherit;" fill="rgb(0, 0, 0)" stroke="rgb(204, 204, 204)" stroke-width="1px"></line><line x1="185.625" y1="0" x2="185.625" y2="5" style="visibility: inherit;" fill="rgb(0, 0, 0)" stroke="rgb(204, 204, 204)" stroke-width="1px"></line><line x1="208.828125" y1="0" x2="208.828125" y2="5" style="visibility: inherit;" fill="rgb(0, 0, 0)" stroke="rgb(204, 204, 204)" stroke-width="1px"></line><line x1="232.03125" y1="0" x2="232.03125" y2="5" style="visibility: inherit;" fill="rgb(0, 0, 0)" stroke="rgb(204, 204, 204)" stroke-width="1px"></line><line x1="255.234375" y1="0" x2="255.234375" y2="5" style="visibility: inherit;" fill="rgb(0, 0, 0)" stroke="rgb(204, 204, 204)" stroke-width="1px"></line><line x1="278.4375" y1="0" x2="278.4375" y2="5" style="visibility: inherit;" fill="rgb(0, 0, 0)" stroke="rgb(204, 204, 204)" stroke-width="1px"></line></g><g transform="translate(0, 8)"><text x="0" y="0" dx="0em" dy="0.95em" style="text-anchor: middle; visibility: hidden; font-family: Roboto, sans-serif; font-size: 12px; font-weight: 200;" fill="rgb(50, 49, 63)" stroke="none" stroke-width="1px">-200</text><text x="23.203125" y="0" dx="0em" dy="0.95em" style="text-anchor: middle; visibility: inherit; font-family: Roboto, sans-serif; font-size: 12px; font-weight: 200;" fill="rgb(50, 49, 63)" stroke="none" stroke-width="1px">0</text><text x="46.40625" y="0" dx="0em" dy="0.95em" style="text-anchor: middle; visibility: hidden; font-family: Roboto, sans-serif; font-size: 12px; font-weight: 200;" fill="rgb(50, 49, 63)" stroke="none" stroke-width="1px">200</text><text x="69.609375" y="0" dx="0em" dy="0.95em" style="text-anchor: middle; visibility: inherit; font-family: Roboto, sans-serif; font-size: 12px; font-weight: 200;" fill="rgb(50, 49, 63)" stroke="none" stroke-width="1px">400</text><text x="92.8125" y="0" dx="0em" dy="0.95em" style="text-anchor: middle; visibility: hidden; font-family: Roboto, sans-serif; font-size: 12px; font-weight: 200;" fill="rgb(50, 49, 63)" stroke="none" stroke-width="1px">600</text><text x="116.015625" y="0" dx="0em" dy="0.95em" style="text-anchor: middle; visibility: inherit; font-family: Roboto, sans-serif; font-size: 12px; font-weight: 200;" fill="rgb(50, 49, 63)" stroke="none" stroke-width="1px">800</text><text x="139.21875" y="0" dx="0em" dy="0.95em" style="text-anchor: middle; visibility: hidden; font-family: Roboto, sans-serif; font-size: 12px; font-weight: 200;" fill="rgb(50, 49, 63)" stroke="none" stroke-width="1px">1k</text><text x="162.421875" y="0" dx="0em" dy="0.95em" style="text-anchor: middle; visibility: inherit; font-family: Roboto, sans-serif; font-size: 12px; font-weight: 200;" fill="rgb(50, 49, 63)" stroke="none" stroke-width="1px">1.2k</text><text x="185.625" y="0" dx="0em" dy="0.95em" style="text-anchor: middle; visibility: hidden; font-family: Roboto, sans-serif; font-size: 12px; font-weight: 200;" fill="rgb(50, 49, 63)" stroke="none" stroke-width="1px">1.4k</text><text x="208.828125" y="0" dx="0em" dy="0.95em" style="text-anchor: middle; visibility: inherit; font-family: Roboto, sans-serif; font-size: 12px; font-weight: 200;" fill="rgb(50, 49, 63)" stroke="none" stroke-width="1px">1.6k</text><text x="232.03125" y="0" dx="0em" dy="0.95em" style="text-anchor: middle; visibility: hidden; font-family: Roboto, sans-serif; font-size: 12px; font-weight: 200;" fill="rgb(50, 49, 63)" stroke="none" stroke-width="1px">1.8k</text><text x="255.234375" y="0" dx="0em" dy="0.95em" style="text-anchor: middle; visibility: inherit; font-family: Roboto, sans-serif; font-size: 12px; font-weight: 200;" fill="rgb(50, 49, 63)" stroke="none" stroke-width="1px">2k</text><text x="278.4375" y="0" dx="0em" dy="0.95em" style="text-anchor: middle; visibility: hidden; font-family: Roboto, sans-serif; font-size: 12px; font-weight: 200;" fill="rgb(50, 49, 63)" stroke="none" stroke-width="1px">2.2k</text></g><line x1="0" y1="0" x2="278.4375" y2="0" fill="rgb(0, 0, 0)" stroke="rgb(204, 204, 204)" stroke-width="1px"></line></g></g></g></g></svg>