<svg viewBox="0 0 330 200" xmlns="http://www.w3.org/2000/svg"><g><g><g><g><g><line x1="51.5625" y1="178" x2="46.5625" y2="178" style="visibility: inherit;" fill="rgb(0, 0, 0)" stroke="rgb(204, 204, 204)" stroke-width="1px"></line><line x1="51.5625" y1="158.2222222222222" x2="46.5625" y2="158.2222222222222" style="visibility: inherit;" fill="rgb(0, 0, 0)" stroke="rgb(204, 204, 204)" stroke-width="1px"></line><line x1="51.5625" y1="138.44444444444446" x2="46.5625" y2="138.44444444444446" style="visibility: inherit;" fill="rgb(0, 0, 0)" stroke="rgb(204, 204, 204)" stroke-width="1px"></line><line x1="51.5625" y1="118.66666666666666" x2="46.5625" y2="118.66666666666666" style="visibility: inherit;" fill="rgb(0, 0, 0)" stroke="rgb(204, 204, 204)" stroke-width="1px"></line><line x1="51.5625" y1="98.8888888888889" x2="46.5625" y2="98.8888888888889" style="visibility: inherit;" fill="rgb(0, 0, 0)" stroke="rgb(204, 204, 204)" stroke-width="1px"></line><line x1="51.5625" y1="79.1111111111111" x2="46.5625" y2="79.1111111111111" style="visibility: inherit;" fill="rgb(0, 0, 0)" stroke="rgb(204, 204, 204)" stroke-width="1px"></line><line x1="51.5625" y1="59.33333333333334" x2="46.5625" y2="59.33333333333334" style="visibility: inherit;" fill="rgb(0, 0, 0)" stroke="rgb(204, 204, 204)" stroke-width="1px"></line><line x1="51.5625" y1="39.55555555555557" x2="46.5625" y2="39.55555555555557" style="visibility: inherit;" fill="rgb(0, 0, 0)" stroke="rgb(204, 204, 204)" stroke-width="1px"></line><line x1="51.5625" y1="19.777777777777786" x2="46.5625" y2="19.777777777777786" style="visibility: inherit;" fill="rgb(0, 0, 0)" stroke="rgb(204, 204, 204)" stroke-width="1px"></line><line x1="51.5625" y1="0" x2="46.5625" y2="0" style="visibility: inherit;" fill="rgb(0, 0, 0)" stroke="rgb(204, 204, 204)" stroke-width="1px"></line></g><g transform="translate(41.5625, 0)"><text x="0" y="178" dx="0em" dy="0.3em" style="text-anchor: end; visibility: hidden; font-family: Roboto, sans-serif; font-size: 12px; font-weight: 200;" fill="rgb(50, 49, 63)" stroke="none" stroke-width="1px">-0.1</text><text x="0" y="158.2222222222222" dx="0em" dy="0.3em" style="text-anchor: end; visibility: inherit; font-family: Roboto, sans-serif; font-size: 12px; font-weight: 200;" fill="rgb(50, 49, 63)" stroke="none" stroke-width="1px">0</text><text x="0" y="138.44444444444446" dx="0em" dy="0.3em" style="text-anchor: end; visibility: hidden; font-family: Roboto, sans-serif; font-size: 12px; font-weight: 200;" fill="rgb(50, 49, 63)" stroke="none" stroke-width="1px">0.1</text><text x="0" y="118.66666666666666" dx="0em" dy="0.3em" style="text-anchor: end; visibility: inherit; font-family: Roboto, sans-serif; font-size: 12px; font-weight: 200;" fill="rgb(50, 49, 63)" stroke="none" stroke-width="1px">0.2</text><text x="0" y="98.8888888888889" dx="0em" dy="0.3em" style="text-anchor: end; visibility: hidden; font-family: Roboto, sans-serif; font-size: 12px; font-weight: 200;" fill="rgb(50, 49, 63)" stroke="none" stroke-width="1px">0.3</text><text x="0" y="79.1111111111111" dx="0em" dy="0.3em" style="text-anchor: end; visibility: inherit; font-family: Roboto, sans-serif; font-size: 12px; font-weight: 200;" fill="rgb(50, 49, 63)" stroke="none" stroke-width="1px">0.4</text><text x="0" y="59.33333333333334" dx="0em" dy="0.3em" style="text-anchor: end; visibility: hidden; font-family: Roboto, sans-serif; font-size: 12px; font-weight: 200;" fill="rgb(50, 49, 63)" stroke="none" stroke-width="1px">0.5</text><text x="0" y="39.55555555555557" dx="0em" dy="0.3em" style="text-anchor: end; visibility: inherit; font-family: Roboto, sans-serif; font-size: 12px; font-weight: 200;" fill="rgb(50, 49, 63)" stroke="none" stroke-width="1px">0.6</text><text x="0" y="19.777777777777786" dx="0em" dy="0.3em" style="text-anchor: end; visibility: hidden; font-family: Roboto, sans-serif; font-size: 12px; font-weight: 200;" fill="rgb(50, 49, 63)" stroke="none" stroke-width="1px">0.7</text><text x="0" y="0" dx="0em" dy="0.3em" style="text-anchor: end; visibility: hidden; font-family: Roboto, sans-serif; font-size: 12px; font-weight: 200;" fill="rgb(50, 49, 63)" stroke="none" stroke-width="1px">0.8</text></g><line x1="51.5625" y1="0" x2="51.5625" y2="178" fill="rgb(0, 0, 0)" stroke="rgb(204, 204, 204)" stroke-width="1px"></line></g></g><g transform="translate(51, 0)" clip-path="url(#clip_0)"><clipPath id="clip_0"><rect width="278" height="178"></rect></clipPath><g><g><g><line x1="0" y1="0" x2="0" y2="178" fill="rgb(0, 0, 0)" stroke="rgb(60, 60, 60)" stroke-width="1px" opacity="0.25"></line><line x1="23.203125" y1="0" x2="23.203125" y2="178" fill="rgb(0, 0, 0)" stroke="rgb(60, 60, 60)" stroke-width="1px" opacity="0.25"></line><line x1="46.40625" y1="0" x2="46.40625" y2="178" fill="rgb(0, 0, 0)" stroke="rgb(60, 60, 60)" stroke-width="1px" opacity="0.25"></line><line x1="69.609375" y1="0" x2="69.609375" y2="178" fill="rgb(0, 0, 0)" stroke="rgb(60, 60, 60)" stroke-width="1px" opacity="0.25"></line><line x1="92.8125" y1="0" x2="92.8125" y2="178" fill="rgb(0, 0, 0)" stroke="rgb(60, 60, 60)" stroke-width="1px" opacity="0.25"></line><line x1="116.015625" y1="0" x2="116.015625" y2="178" fill="rgb(0, 0, 0)" stroke="rgb(60, 60, 60)" stroke-width="1px" opacity="0.25"></line><line x1="139.21875" y1="0" x2="139.21875" y2="178" fill="rgb(0, 0, 0)" stroke="rgb(60, 60, 60)" stroke-width="1px" opacity="0.25"></line><line x1="162.421875" y1="0" x2="162.421875" y2="178" fill="rgb(0, 0, 0)" stroke="rgb(60, 60, 60)" stroke-width="1px" opacity="0.25"></line><line x1="185.625" y1="0" x2="185.625" y2="178" fill="rgb(0, 0, 0)" stroke="rgb(60, 60, 60)" stroke-width="1px" opacity="0.25"></line><line x1="208.828125" y1="0" x2="208.828125" y2="178" fill="rgb(0, 0, 0)" stroke="rgb(60, 60, 60)" stroke-width="1px" opacity="0.25"></line><line x1="232.03125" y1="0" x2="232.03125" y2="178" fill="rgb(0, 0, 0)" stroke="rgb(60, 60, 60)" stroke-width="1px" opacity="0.25"></line><line x1="255.234375" y1="0" x2="255.234375" y2="178" fill="rgb(0, 0, 0)" stroke="rgb(60, 60, 60)" stroke-width="1px" opacity="0.25"></line><line x1="278.4375" y1="0" x2="278.4375" y2="178" fill="rgb(0, 0, 0)" stroke="rgb(60, 60, 60)" stroke-width="1px" opacity="0.25"></line></g><g><line x1="0" y1="178" x2="278.4375" y2="178" fill="rgb(0, 0, 0)" stroke="rgb(60, 60, 60)" stroke-width="1px" opacity="0.25"></line><line x1="0" y1="158.2222222222222" x2="278.4375" y2="158.2222222222222" fill="rgb(0, 0, 0)" stroke="rgb(60, 60, 60)" stroke-width="1px" opacity="0.25"></line><line x1="0" y1="138.44444444444446" x2="278.4375" y2="138.44444444444446" fill="rgb(0, 0, 0)" stroke="rgb(60, 60, 60)" stroke-width="1px" opacity="0.25"></line><line x1="0" y1="118.66666666666666" x2="278.4375" y2="118.66666666666666" fill="rgb(0, 0, 0)" stroke="rgb(60, 60, 60)" stroke-width="1px" opacity="0.25"></line><line x1="0" y1="98.8888888888889" x2="278.4375" y2="98.8888888888889" fill="rgb(0, 0, 0)" stroke="rgb(60, 60, 60)" stroke-width="1px" opacity="0.25"></line><line x1="0" y1="79.1111111111111" x2="278.4375" y2="79.1111111111111" fill="rgb(0, 0, 0)" stroke="rgb(60, 60, 60)" stroke-width="1px" opacity="0.25"></line><line x1="0" y1="59.33333333333334" x2="278.4375" y2="59.33333333333334" fill="rgb(0, 0, 0)" stroke="rgb(60, 60, 60)" stroke-width="1px" opacity="0.25"></line><line x1="0" y1="39.55555555555557" x2="278.4375" y2="39.55555555555557" fill="rgb(0, 0, 0)" stroke="rgb(60, 60, 60)" stroke-width="1px" opacity="0.25"></line><line x1="0" y1="19.777777777777786" x2="278.4375" y2="19.777777777777786" fill="rgb(0, 0, 0)" stroke="rgb(60, 60, 60)" stroke-width="1px" opacity="0.25"></line><line x1="0" y1="0" x2="278.4375" y2="0" fill="rgb(0, 0, 0)" stroke="rgb(60, 60, 60)" stroke-width="1px" opacity="0.25"></line></g></g></g><g><g><line x1="0" y1="158.2222222222222" x2="278.4375" y2="158.2222222222222" fill="rgb(0, 0, 0)" stroke="rgb(153, 153, 153)" stroke-width="1.5px"></line></g></g><g><g><line x1="23.203125" y1="0" x2="23.203125" y2="178" fill="rgb(0, 0, 0)" stroke="rgb(153, 153, 153)" stroke-width="1.5px"></line></g></g><g><g><g><g><g><path stroke="rgb(255, 112, 67)" stroke-width="2px" d="M25.407421875,52.13276826010811L27.727734374999997,36.33731801642313L30.048046874999997,28.236412377043944L32.368359375000004,24.57347935486855L34.688671875000004,21.317662166587677L37.008984375,21.003679745456804L39.329296875,23.935384248866082L41.649609375000004,24.9185774262019L43.969921875000004,25.08359214466707L46.290234375000004,25.20725257774999L48.610546875000004,31.201622615717717L50.930859375000004,35.41964896142758L53.251171875000004,39.46359044749137L55.571484375,44.77093548184566L57.891796875,49.5440465133328L60.212109375,53.43922590641923L62.532421875,55.08881169066891L64.852734375,60.01426725528908L67.173046875,61.296423599450556L69.493359375,63.78674146178174L71.81367187500001,65.63719307022888L74.133984375,65.74916041758401L76.454296875,68.11928601425726L78.774609375,68.48324865917762L81.094921875,70.29273888880483L83.415234375,72.44550537639608L85.735546875,72.08787824543323L88.055859375,75.96045830471164L90.376171875,75.19237965761587L92.69648437500001,76.51735721168389L95.016796875,80.14491859130591L97.33710937500001,78.88477981887903L99.657421875,80.93255233160289L101.97773437500001,80.5667562237711L104.298046875,81.53741229031829L106.61835937500001,80.98687223826174L108.938671875,83.67289577007863L111.258984375,82.643078245687L113.579296875,86.14195162583795L115.899609375,86.15000268272618L118.219921875,86.67931196471692L120.540234375,84.94067406069065L122.860546875,84.98163249407563L125.180859375,86.26090908922345L127.50117187500001,88.35021763392702L129.821484375,89.52840839508289L132.141796875,88.48434777265723L134.462109375,89.82097291741022L136.782421875,91.50198387448881L139.102734375,92.41131734988103L141.423046875,94.65859311506851L143.74335937499998,96.45778283488701L146.06367187499998,97.19728406343823L148.383984375,97.00809462909261L150.704296875,99.3765546165582L153.02460937499998,98.9604275567271L155.34492187499998,101.07778027247396L157.665234375,99.18098725697641L159.985546875,99.4662730405008L162.30585937499998,98.25449852270198L164.626171875,100.5781919089297L166.946484375,100.7518010308084L169.266796875,99.82438070461244L171.58710937499998,99.68189492620745L173.907421875,99.42732137387294L176.227734375,100.37748566833316L178.54804687499998,101.31941865557074L180.86835937499998,98.94528744754712L183.188671875,99.81570871620553L185.508984375,99.75270617242826L187.82929687499998,100.52017531800638L190.14960937499998,100.36172890270772L192.469921875,100.70918387071636L194.790234375,101.07078677354066L197.11054687499998,101.95159993531986L199.430859375,99.66259063195136L201.751171875,100.15674813866515L204.071484375,100.46618874504772L206.39179687499998,100.92995736116269L208.712109375,100.71692679592428L211.032421875,100.68485208644877L213.35273437499998,99.71749093178224L215.67304687499998,99.79349656263312L217.993359375,99.69682720385254L220.313671875,102.80808142803798L222.63398437499998,103.52791916254111L224.95429687499998,101.68839973496499L227.274609375,102.767093020402L229.594921875,101.73911022474391L231.91523437499998,103.17319912511125L234.235546875,101.27383391140708L236.555859375,103.50709529499827L238.876171875,102.52106120985454L241.19648437499998,100.27337940084625L243.516796875,99.86193986729067L245.837109375,100.25836139517196L248.15742187499998,100.013459790001L250.47773437499998,102.14008168208912L252.798046875,100.67556464569755L255.118359375,102.1302202086137" style="fill: none;" fill="none"></path></g></g></g></g><g opacity="0.2"><g><g><g><path stroke="rgb(255, 112, 67)" stroke-width="2px" d="M25.407421875,52.13276826010811L27.727734374999997,26.860047870212135L30.048046874999997,20.459542963239898L32.368359375000004,20.26587012079027L34.688671875000004,17.06686724556818L37.008984375,20.569329023361206L39.329296875,28.127768596013393L41.649609375000004,26.352082517411976L43.969921875000004,25.326956801944313L46.290234375000004,25.390873908996582L48.610546875000004,40.138809177610625L50.930859375000004,41.72373416688708L53.251171875000004,45.516298505995L55.571484375,52.72155539194744L57.891796875,56.69810244772169L60.212109375,59.279247813754615L62.532421875,57.56249231762358L64.852734375,67.4012000295851L67.173046875,63.219462792078666L69.493359375,67.52199063036177L71.81367187500001,68.41276899973553L74.133984375,65.91710775428349L76.454296875,71.67442761527168L78.774609375,69.02918831507367L81.094921875,73.00696137216356L83.415234375,75.67464592721727L85.735546875,71.55143846405878L88.055859375,81.76932244830662L90.376171875,74.04026239448125L92.69648437500001,78.50482281049094L95.016796875,85.58625945780013L97.33710937500001,76.99457191096413L99.657421875,84.00421085622575L101.97773437500001,80.01806208822462L104.298046875,82.99339634842345L106.61835937500001,80.16106217437321L108.938671875,87.70193102624681L111.258984375,81.0983519686593L113.579296875,91.3902616765764L115.899609375,86.16207926803166L118.219921875,87.47327588664162L120.540234375,82.33271720674303L122.860546875,85.04307014412352L125.180859375,88.17982398139107L127.50117187500001,91.48418045043945L129.821484375,91.29569453663295L132.141796875,86.91825683911642L134.462109375,91.82591063446468L136.782421875,94.02350031005012L139.102734375,93.77531756295099L141.423046875,98.02950676282248L143.74335937499998,99.15656741460165L146.06367187499998,98.30653590626186L148.383984375,96.72431047757468L150.704296875,102.9292445977529L153.02460937499998,98.33623696698083L155.34492187499998,104.25380934609308L157.665234375,96.33579773373073L159.985546875,99.89420171578726L162.30585937499998,96.43683674600389L164.626171875,104.06373198827109L166.946484375,101.01221471362645L169.266796875,98.43325021531847L171.58710937499998,99.46816625860002L173.907421875,99.04546104537117L176.227734375,101.8027321100235L178.54804687499998,102.73231813642715L180.86835937499998,95.38409063551163L183.188671875,101.12134061919319L185.508984375,99.65820235676235L187.82929687499998,101.67137903637355L190.14960937499998,100.12405927975973L192.469921875,101.23036632272934L194.790234375,101.6131911277771L197.11054687499998,103.2728196779887L199.430859375,96.22907667689854L201.751171875,100.8979843987359L204.071484375,100.93034965462154L206.39179687499998,101.62561028533513L208.712109375,100.39738094806671L211.032421875,100.63674002223546L213.35273437499998,98.26644919978249L215.67304687499998,99.90750500890945L217.993359375,99.55182316568163L220.313671875,107.47496276431615L222.63398437499998,104.6076757642958L224.95429687499998,98.92912059360081L227.274609375,104.38513294855755L229.594921875,100.19713603125679L231.91523437499998,105.32433247566223L234.235546875,98.42478609085083L236.555859375,106.85698737038507L238.876171875,101.04201008213892L241.19648437499998,96.90185668733385L243.516796875,99.24478056695726L245.837109375,100.85299368699393L248.15742187499998,99.64610738224452L250.47773437499998,105.3300145202213L252.798046875,98.47878909111023L255.118359375,104.31220355298784" style="fill: none;" fill="none"></path></g></g></g></g></g></g><g transform="translate(51, 178)" clip-path="url(#clip_1)"><clipPath id="clip_1"><rect width="278" height="22"></rect></clipPath><g><g><line x1="0" y1="0" x2="0" y2="5" style="visibility: inherit;" fill="rgb(0, 0, 0)" stroke="rgb(204, 204, 204)" stroke-width="1px"></line><line x1="23.203125" y1="0" x2="23.203125" y2="5" style="visibility: inherit;" fill="rgb(0, 0, 0)" stroke="rgb(204, 204, 204)" stroke-width="1px"></line><line x1="46.40625" y1="0" x2="46.40625" y2="5" style="visibility: inherit;" fill="rgb(0, 0, 0)" stroke="rgb(204, 204, 204)" stroke-width="1px"></line><line x1="69.609375" y1="0" x2="69.609375" y2="5" style="visibility: inherit;" fill="rgb(0, 0, 0)" stroke="rgb(204, 204, 204)" stroke-width="1px"></line><line x1="92.8125" y1="0" x2="92.8125" y2="5" style="visibility: inherit;" fill="rgb(0, 0, 0)" stroke="rgb(204, 204, 204)" stroke-width="1px"></line><line x1="116.015625" y1="0" x2="116.015625" y2="5" style="visibility: inherit;" fill="rgb(0, 0, 0)" stroke="rgb(204, 204, 204)" stroke-width="1px"></line><line x1="139.21875" y1="0" x2="139.21875" y2="5" style="visibility: inherit;" fill="rgb(0, 0, 0)" stroke="rgb(204, 204, 204)" stroke-width="1px"></line><line x1="162.421875" y1="0" x2="162.421875" y2="5" style="visibility: inherit;" fill="rgb(0, 0, 0)" stroke="rgb(204, 204, 204)" stroke-width="1px"></line><line x1="185.625" y1="0" x2="185.625" y2="5" style="visibility: inherit;" fill="rgb(0, 0, 0)" stroke="rgb(204, 204, 204)" stroke-width="1px"></line><line x1="208.828125" y1="0" x2="208.828125" y2="5" style="visibility: inherit;" fill="rgb(0, 0, 0)" stroke="rgb(204, 204, 204)" stroke-width="1px"></line><line x1="232.03125" y1="0" x2="232.03125" y2="5" style="visibility: inherit;" fill="rgb(0, 0, 0)" stroke="rgb(204, 204, 204)" stroke-width="1px"></line><line x1="255.234375" y1="0" x2="255.234375" y2="5" style="visibility: inherit;" fill="rgb(0, 0, 0)" stroke="rgb(204, 204, 204)" stroke-width="1px"></line><line x1="278.4375" y1="0" x2="278.4375" y2="5" style="visibility: inherit;" fill="rgb(0, 0, 0)" stroke="rgb(204, 204, 204)" stroke-width="1px"></line></g><g transform="translate(0, 8)"><text x="0" y="0" dx="0em" dy="0.95em" style="text-anchor: middle; visibility: hidden; font-family: Roboto, sans-serif; font-size: 12px; font-weight: 200;" fill="rgb(50, 49, 63)" stroke="none" stroke-width="1px">-200</text><text x="23.203125" y="0" dx="0em" dy="0.95em" style="text-anchor: middle; visibility: inherit; font-family: Roboto, sans-serif; font-size: 12px; font-weight: 200;" fill="rgb(50, 49, 63)" stroke="none" stroke-width="1px">0</text><text x="46.40625" y="0" dx="0em" dy="0.95em" style="text-anchor: middle; visibility: hidden; font-family: Roboto, sans-serif; font-size: 12px; font-weight: 200;" fill="rgb(50, 49, 63)" stroke="none" stroke-width="1px">200</text><text x="69.609375" y="0" dx="0em" dy="0.95em" style="text-anchor: middle; visibility: inherit; font-family: Roboto, sans-serif; font-size: 12px; font-weight: 200;" fill="rgb(50, 49, 63)" stroke="none" stroke-width="1px">400</text><text x="92.8125" y="0" dx="0em" dy="0.95em" style="text-anchor: middle; visibility: hidden; font-family: Roboto, sans-serif; font-size: 12px; font-weight: 200;" fill="rgb(50, 49, 63)" stroke="none" stroke-width="1px">600</text><text x="116.015625" y="0" dx="0em" dy="0.95em" style="text-anchor: middle; visibility: inherit; font-family: Roboto, sans-serif; font-size: 12px; font-weight: 200;" fill="rgb(50, 49, 63)" stroke="none" stroke-width="1px">800</text><text x="139.21875" y="0" dx="0em" dy="0.95em" style="text-anchor: middle; visibility: hidden; font-family: Roboto, sans-serif; font-size: 12px; font-weight: 200;" fill="rgb(50, 49, 63)" stroke="none" stroke-width="1px">1k</text><text x="162.421875" y="0" dx="0em" dy="0.95em" style="text-anchor: middle; visibility: inherit; font-family: Roboto, sans-serif; font-size: 12px; font-weight: 200;" fill="rgb(50, 49, 63)" stroke="none" stroke-width="1px">1.2k</text><text x="185.625" y="0" dx="0em" dy="0.95em" style="text-anchor: middle; visibility: hidden; font-family: Roboto, sans-serif; font-size: 12px; font-weight: 200;" fill="rgb(50, 49, 63)" stroke="none" stroke-width="1px">1.4k</text><text x="208.828125" y="0" dx="0em" dy="0.95em" style="text-anchor: middle; visibility: inherit; font-family: Roboto, sans-serif; font-size: 12px; font-weight: 200;" fill="rgb(50, 49, 63)" stroke="none" stroke-width="1px">1.6k</text><text x="232.03125" y="0" dx="0em" dy="0.95em" style="text-anchor: middle; visibility: hidden; font-family: Roboto, sans-serif; font-size: 12px; font-weight: 200;" fill="rgb(50, 49, 63)" stroke="none" stroke-width="1px">1.8k</text><text x="255.234375" y="0" dx="0em" dy="0.95em" style="text-anchor: middle; visibility: inherit; font-family: Roboto, sans-serif; font-size: 12px; font-weight: 200;" fill="rgb(50, 49, 63)" stroke="none" stroke-width="1px">2k</text><text x="278.4375" y="0" dx="0em" dy="0.95em" style="text-anchor: middle; visibility: hidden; font-family: Roboto, sans-serif; font-size: 12px; font-weight: 200;" fill="rgb(50, 49, 63)" stroke="none" stroke-width="1px">2.2k</text></g><line x1="0" y1="0" x2="278.4375" y2="0" fill="rgb(0, 0, 0)" stroke="rgb(204, 204, 204)" stroke-width="1px"></line></g></g></g></g></svg>